<mxfile host="app.diagrams.net" modified="2023-06-07T14:40:44.611Z" agent="Mozilla/5.0 (Windows NT 10.0; Win64; x64) AppleWebKit/537.36 (KHTML, like Gecko) Chrome/114.0.0.0 Safari/537.36" etag="lAbQ01wB336Xn65DL94D" version="21.3.7" type="device">
  <diagram name="Page-1" id="XNckGpqc0WVYpioGDv8S">
    <mxGraphModel dx="1195" dy="589" grid="1" gridSize="10" guides="1" tooltips="1" connect="1" arrows="1" fold="1" page="1" pageScale="1" pageWidth="827" pageHeight="1169" math="0" shadow="0">
      <root>
        <mxCell id="0" />
        <mxCell id="1" parent="0" />
        <mxCell id="Vr_59jr4dUAh8Cc-bapq-1" value="" style="rounded=0;whiteSpace=wrap;html=1;" parent="1" vertex="1">
          <mxGeometry x="63" y="145" width="120" height="150" as="geometry" />
        </mxCell>
        <mxCell id="Vr_59jr4dUAh8Cc-bapq-2" value="" style="rounded=0;whiteSpace=wrap;html=1;" parent="1" vertex="1">
          <mxGeometry x="580" y="153" width="170" height="120" as="geometry" />
        </mxCell>
        <mxCell id="Vr_59jr4dUAh8Cc-bapq-3" value="" style="rounded=0;whiteSpace=wrap;html=1;" parent="1" vertex="1">
          <mxGeometry x="220" y="145" width="330" height="150" as="geometry" />
        </mxCell>
        <mxCell id="Vr_59jr4dUAh8Cc-bapq-4" value="&lt;font style=&quot;font-size: 10px;&quot;&gt;SS&lt;/font&gt;" style="text;html=1;strokeColor=none;fillColor=none;align=center;verticalAlign=middle;whiteSpace=wrap;rounded=0;" parent="1" vertex="1">
          <mxGeometry x="586" y="154" width="20" height="30" as="geometry" />
        </mxCell>
        <mxCell id="Vr_59jr4dUAh8Cc-bapq-5" value="&lt;span style=&quot;font-size: 10px;&quot;&gt;GND&lt;/span&gt;" style="text;html=1;strokeColor=none;fillColor=none;align=center;verticalAlign=middle;whiteSpace=wrap;rounded=0;" parent="1" vertex="1">
          <mxGeometry x="715" y="243" width="30" height="30" as="geometry" />
        </mxCell>
        <mxCell id="fKp8TJcEMwfx0ITSWJcA-31" style="edgeStyle=orthogonalEdgeStyle;rounded=0;orthogonalLoop=1;jettySize=auto;html=1;exitX=0.5;exitY=0;exitDx=0;exitDy=0;endArrow=none;endFill=0;" edge="1" parent="1" source="Vr_59jr4dUAh8Cc-bapq-6">
          <mxGeometry relative="1" as="geometry">
            <mxPoint x="420" y="60" as="targetPoint" />
            <Array as="points">
              <mxPoint x="684" y="60" />
            </Array>
          </mxGeometry>
        </mxCell>
        <mxCell id="Vr_59jr4dUAh8Cc-bapq-6" value="&lt;span style=&quot;font-size: 10px;&quot;&gt;MISO&lt;/span&gt;" style="text;html=1;strokeColor=none;fillColor=none;align=center;verticalAlign=middle;whiteSpace=wrap;rounded=0;" parent="1" vertex="1">
          <mxGeometry x="669" y="153" width="30" height="30" as="geometry" />
        </mxCell>
        <mxCell id="fKp8TJcEMwfx0ITSWJcA-30" style="edgeStyle=orthogonalEdgeStyle;rounded=0;orthogonalLoop=1;jettySize=auto;html=1;exitX=0.5;exitY=0;exitDx=0;exitDy=0;endArrow=none;endFill=0;" edge="1" parent="1" source="Vr_59jr4dUAh8Cc-bapq-7">
          <mxGeometry relative="1" as="geometry">
            <mxPoint x="400" y="90" as="targetPoint" />
            <Array as="points">
              <mxPoint x="654" y="90" />
            </Array>
          </mxGeometry>
        </mxCell>
        <mxCell id="Vr_59jr4dUAh8Cc-bapq-7" value="&lt;span style=&quot;font-size: 10px;&quot;&gt;MOSI&lt;/span&gt;" style="text;html=1;strokeColor=none;fillColor=none;align=center;verticalAlign=middle;whiteSpace=wrap;rounded=0;" parent="1" vertex="1">
          <mxGeometry x="639" y="153" width="30" height="30" as="geometry" />
        </mxCell>
        <mxCell id="fKp8TJcEMwfx0ITSWJcA-5" style="edgeStyle=orthogonalEdgeStyle;rounded=0;orthogonalLoop=1;jettySize=auto;html=1;exitX=0.5;exitY=1;exitDx=0;exitDy=0;endArrow=none;endFill=0;" edge="1" parent="1">
          <mxGeometry relative="1" as="geometry">
            <mxPoint x="361" y="420" as="targetPoint" />
            <mxPoint x="731" y="273" as="sourcePoint" />
            <Array as="points">
              <mxPoint x="731" y="420" />
              <mxPoint x="361" y="420" />
            </Array>
          </mxGeometry>
        </mxCell>
        <mxCell id="fKp8TJcEMwfx0ITSWJcA-34" style="edgeStyle=orthogonalEdgeStyle;rounded=0;orthogonalLoop=1;jettySize=auto;html=1;exitX=0.5;exitY=1;exitDx=0;exitDy=0;endArrow=none;endFill=0;entryX=0.698;entryY=1.002;entryDx=0;entryDy=0;entryPerimeter=0;" edge="1" parent="1" source="Vr_59jr4dUAh8Cc-bapq-9" target="Vr_59jr4dUAh8Cc-bapq-3">
          <mxGeometry relative="1" as="geometry">
            <mxPoint x="450" y="300" as="targetPoint" />
            <Array as="points">
              <mxPoint x="598" y="320" />
              <mxPoint x="450" y="320" />
            </Array>
          </mxGeometry>
        </mxCell>
        <mxCell id="Vr_59jr4dUAh8Cc-bapq-9" value="&lt;span style=&quot;font-size: 10px;&quot;&gt;SCK&lt;/span&gt;" style="text;html=1;strokeColor=none;fillColor=none;align=center;verticalAlign=middle;whiteSpace=wrap;rounded=0;" parent="1" vertex="1">
          <mxGeometry x="585" y="243" width="26" height="30" as="geometry" />
        </mxCell>
        <mxCell id="fKp8TJcEMwfx0ITSWJcA-21" style="edgeStyle=orthogonalEdgeStyle;rounded=0;orthogonalLoop=1;jettySize=auto;html=1;exitX=0.5;exitY=0;exitDx=0;exitDy=0;endArrow=none;endFill=0;" edge="1" parent="1">
          <mxGeometry relative="1" as="geometry">
            <mxPoint x="279" y="133" as="targetPoint" />
            <mxPoint x="624.0000000000001" y="153" as="sourcePoint" />
            <Array as="points">
              <mxPoint x="598" y="133" />
              <mxPoint x="235" y="133" />
            </Array>
          </mxGeometry>
        </mxCell>
        <mxCell id="Vr_59jr4dUAh8Cc-bapq-10" value="&lt;span style=&quot;font-size: 10px;&quot;&gt;VCC&lt;/span&gt;" style="text;html=1;strokeColor=none;fillColor=none;align=center;verticalAlign=middle;whiteSpace=wrap;rounded=0;" parent="1" vertex="1">
          <mxGeometry x="610" y="153" width="30" height="30" as="geometry" />
        </mxCell>
        <mxCell id="Vr_59jr4dUAh8Cc-bapq-14" value="&lt;font style=&quot;font-size: 10px;&quot;&gt;8&lt;/font&gt;" style="text;html=1;strokeColor=none;fillColor=none;align=center;verticalAlign=middle;whiteSpace=wrap;rounded=0;" parent="1" vertex="1">
          <mxGeometry x="562" y="142" width="20" height="30" as="geometry" />
        </mxCell>
        <mxCell id="Vr_59jr4dUAh8Cc-bapq-16" value="&lt;span style=&quot;font-size: 10px;&quot;&gt;6&lt;/span&gt;" style="text;html=1;strokeColor=none;fillColor=none;align=center;verticalAlign=middle;whiteSpace=wrap;rounded=0;" parent="1" vertex="1">
          <mxGeometry x="682" y="124" width="30" height="30" as="geometry" />
        </mxCell>
        <mxCell id="Vr_59jr4dUAh8Cc-bapq-17" value="&lt;span style=&quot;font-size: 10px;&quot;&gt;5&lt;/span&gt;" style="text;html=1;strokeColor=none;fillColor=none;align=center;verticalAlign=middle;whiteSpace=wrap;rounded=0;" parent="1" vertex="1">
          <mxGeometry x="652" y="124" width="30" height="30" as="geometry" />
        </mxCell>
        <mxCell id="Vr_59jr4dUAh8Cc-bapq-18" value="&lt;span style=&quot;font-size: 10px;&quot;&gt;7&lt;/span&gt;" style="text;html=1;strokeColor=none;fillColor=none;align=center;verticalAlign=middle;whiteSpace=wrap;rounded=0;" parent="1" vertex="1">
          <mxGeometry x="595" y="273" width="20" height="30" as="geometry" />
        </mxCell>
        <mxCell id="Vr_59jr4dUAh8Cc-bapq-19" value="&lt;span style=&quot;font-size: 10px;&quot;&gt;1&lt;/span&gt;" style="text;html=1;strokeColor=none;fillColor=none;align=center;verticalAlign=middle;whiteSpace=wrap;rounded=0;" parent="1" vertex="1">
          <mxGeometry x="622" y="124" width="30" height="30" as="geometry" />
        </mxCell>
        <mxCell id="Vr_59jr4dUAh8Cc-bapq-20" value="&lt;font size=&quot;1&quot; style=&quot;&quot;&gt;&lt;b style=&quot;font-size: 16px;&quot;&gt;RFID-RC522&lt;/b&gt;&lt;/font&gt;" style="text;html=1;strokeColor=none;fillColor=none;align=center;verticalAlign=middle;whiteSpace=wrap;rounded=0;" parent="1" vertex="1">
          <mxGeometry x="615" y="198" width="100" height="30" as="geometry" />
        </mxCell>
        <mxCell id="Vr_59jr4dUAh8Cc-bapq-21" value="&lt;font size=&quot;1&quot; style=&quot;&quot;&gt;&lt;b style=&quot;font-size: 16px;&quot;&gt;ESP32&lt;/b&gt;&lt;/font&gt;" style="text;html=1;strokeColor=none;fillColor=none;align=center;verticalAlign=middle;whiteSpace=wrap;rounded=0;" parent="1" vertex="1">
          <mxGeometry x="335" y="210" width="100" height="30" as="geometry" />
        </mxCell>
        <mxCell id="Vr_59jr4dUAh8Cc-bapq-22" value="&lt;font size=&quot;1&quot; style=&quot;&quot;&gt;&lt;b style=&quot;font-size: 16px;&quot;&gt;EEPROM&lt;/b&gt;&lt;/font&gt;" style="text;html=1;strokeColor=none;fillColor=none;align=center;verticalAlign=middle;whiteSpace=wrap;rounded=0;" parent="1" vertex="1">
          <mxGeometry x="73" y="205" width="100" height="30" as="geometry" />
        </mxCell>
        <mxCell id="Vr_59jr4dUAh8Cc-bapq-31" value="&lt;span style=&quot;font-size: 10px;&quot;&gt;8&lt;/span&gt;" style="text;html=1;strokeColor=none;fillColor=none;align=center;verticalAlign=middle;whiteSpace=wrap;rounded=0;" parent="1" vertex="1">
          <mxGeometry x="158.5" y="294" width="30" height="30" as="geometry" />
        </mxCell>
        <mxCell id="Vr_59jr4dUAh8Cc-bapq-32" value="&lt;span style=&quot;font-size: 10px;&quot;&gt;7&lt;/span&gt;" style="text;html=1;strokeColor=none;fillColor=none;align=center;verticalAlign=middle;whiteSpace=wrap;rounded=0;" parent="1" vertex="1">
          <mxGeometry x="128.5" y="294" width="30" height="30" as="geometry" />
        </mxCell>
        <mxCell id="Vr_59jr4dUAh8Cc-bapq-33" value="&lt;span style=&quot;font-size: 10px;&quot;&gt;3&lt;/span&gt;" style="text;html=1;strokeColor=none;fillColor=none;align=center;verticalAlign=middle;whiteSpace=wrap;rounded=0;" parent="1" vertex="1">
          <mxGeometry x="105.5" y="294" width="20" height="30" as="geometry" />
        </mxCell>
        <mxCell id="Vr_59jr4dUAh8Cc-bapq-34" value="&lt;span style=&quot;font-size: 10px;&quot;&gt;4&lt;/span&gt;" style="text;html=1;strokeColor=none;fillColor=none;align=center;verticalAlign=middle;whiteSpace=wrap;rounded=0;" parent="1" vertex="1">
          <mxGeometry x="73.5" y="294" width="30" height="30" as="geometry" />
        </mxCell>
        <mxCell id="fKp8TJcEMwfx0ITSWJcA-17" style="edgeStyle=orthogonalEdgeStyle;rounded=0;orthogonalLoop=1;jettySize=auto;html=1;exitX=0.5;exitY=1;exitDx=0;exitDy=0;endArrow=none;endFill=0;entryX=0.5;entryY=1;entryDx=0;entryDy=0;" edge="1" parent="1" source="Vr_59jr4dUAh8Cc-bapq-35" target="Vr_59jr4dUAh8Cc-bapq-93">
          <mxGeometry relative="1" as="geometry">
            <mxPoint x="211" y="94" as="targetPoint" />
            <mxPoint x="169.5" y="295" as="sourcePoint" />
            <Array as="points">
              <mxPoint x="166" y="342" />
              <mxPoint x="210" y="342" />
              <mxPoint x="210" y="40" />
            </Array>
          </mxGeometry>
        </mxCell>
        <mxCell id="Vr_59jr4dUAh8Cc-bapq-35" value="&lt;span style=&quot;font-size: 10px;&quot;&gt;VCC&lt;/span&gt;" style="text;html=1;strokeColor=none;fillColor=none;align=center;verticalAlign=middle;whiteSpace=wrap;rounded=0;" parent="1" vertex="1">
          <mxGeometry x="150.5" y="265" width="30" height="30" as="geometry" />
        </mxCell>
        <mxCell id="fKp8TJcEMwfx0ITSWJcA-19" style="edgeStyle=orthogonalEdgeStyle;rounded=0;orthogonalLoop=1;jettySize=auto;html=1;exitX=0.5;exitY=1;exitDx=0;exitDy=0;endArrow=none;endFill=0;" edge="1" parent="1" source="Vr_59jr4dUAh8Cc-bapq-36">
          <mxGeometry relative="1" as="geometry">
            <mxPoint x="170" y="342" as="targetPoint" />
            <Array as="points">
              <mxPoint x="136" y="342" />
            </Array>
          </mxGeometry>
        </mxCell>
        <mxCell id="Vr_59jr4dUAh8Cc-bapq-36" value="&lt;span style=&quot;font-size: 10px;&quot;&gt;HOLD&lt;/span&gt;" style="text;html=1;strokeColor=none;fillColor=none;align=center;verticalAlign=middle;whiteSpace=wrap;rounded=0;" parent="1" vertex="1">
          <mxGeometry x="120.5" y="265" width="30" height="30" as="geometry" />
        </mxCell>
        <mxCell id="Vr_59jr4dUAh8Cc-bapq-37" value="&lt;span style=&quot;font-size: 10px;&quot;&gt;WP&lt;/span&gt;" style="text;html=1;strokeColor=none;fillColor=none;align=center;verticalAlign=middle;whiteSpace=wrap;rounded=0;" parent="1" vertex="1">
          <mxGeometry x="97.5" y="265" width="20" height="30" as="geometry" />
        </mxCell>
        <mxCell id="fKp8TJcEMwfx0ITSWJcA-14" style="edgeStyle=orthogonalEdgeStyle;rounded=0;orthogonalLoop=1;jettySize=auto;html=1;exitX=0.5;exitY=1;exitDx=0;exitDy=0;endArrow=none;endFill=0;" edge="1" parent="1">
          <mxGeometry relative="1" as="geometry">
            <mxPoint x="361" y="440" as="targetPoint" />
            <mxPoint x="81.5" y="295" as="sourcePoint" />
            <Array as="points">
              <mxPoint x="82" y="440" />
              <mxPoint x="361" y="440" />
            </Array>
          </mxGeometry>
        </mxCell>
        <mxCell id="Vr_59jr4dUAh8Cc-bapq-38" value="&lt;span style=&quot;font-size: 10px;&quot;&gt;VSS&lt;br&gt;&lt;/span&gt;" style="text;html=1;strokeColor=none;fillColor=none;align=center;verticalAlign=middle;whiteSpace=wrap;rounded=0;" parent="1" vertex="1">
          <mxGeometry x="65.5" y="265" width="30" height="30" as="geometry" />
        </mxCell>
        <mxCell id="Vr_59jr4dUAh8Cc-bapq-39" value="" style="rounded=0;whiteSpace=wrap;html=1;" parent="1" vertex="1">
          <mxGeometry x="310" y="326" width="100" height="80" as="geometry" />
        </mxCell>
        <mxCell id="Vr_59jr4dUAh8Cc-bapq-41" value="&lt;b&gt;TMB12A05&lt;br&gt;&lt;/b&gt;" style="text;html=1;strokeColor=none;fillColor=none;align=center;verticalAlign=middle;whiteSpace=wrap;rounded=0;" parent="1" vertex="1">
          <mxGeometry x="310" y="351" width="100" height="30" as="geometry" />
        </mxCell>
        <mxCell id="Vr_59jr4dUAh8Cc-bapq-43" value="&lt;span style=&quot;font-size: 10px;&quot;&gt;GND&lt;/span&gt;" style="text;html=1;strokeColor=none;fillColor=none;align=center;verticalAlign=middle;whiteSpace=wrap;rounded=0;" parent="1" vertex="1">
          <mxGeometry x="345" y="376" width="30" height="30" as="geometry" />
        </mxCell>
        <mxCell id="Vr_59jr4dUAh8Cc-bapq-44" value="&lt;span style=&quot;font-size: 10px;&quot;&gt;VCC&lt;/span&gt;" style="text;html=1;strokeColor=none;fillColor=none;align=center;verticalAlign=middle;whiteSpace=wrap;rounded=0;" parent="1" vertex="1">
          <mxGeometry x="350" y="326" width="20" height="30" as="geometry" />
        </mxCell>
        <mxCell id="Vr_59jr4dUAh8Cc-bapq-45" value="&lt;span style=&quot;font-size: 10px;&quot;&gt;33&lt;/span&gt;" style="text;html=1;strokeColor=none;fillColor=none;align=center;verticalAlign=middle;whiteSpace=wrap;rounded=0;" parent="1" vertex="1">
          <mxGeometry x="345" y="265" width="30" height="30" as="geometry" />
        </mxCell>
        <mxCell id="fKp8TJcEMwfx0ITSWJcA-18" style="edgeStyle=orthogonalEdgeStyle;rounded=0;orthogonalLoop=1;jettySize=auto;html=1;endArrow=none;endFill=0;exitX=0.18;exitY=0.007;exitDx=0;exitDy=0;exitPerimeter=0;" edge="1" parent="1">
          <mxGeometry relative="1" as="geometry">
            <mxPoint x="210" y="109" as="targetPoint" />
            <mxPoint x="279.4" y="145.05" as="sourcePoint" />
            <Array as="points">
              <mxPoint x="279" y="109" />
            </Array>
          </mxGeometry>
        </mxCell>
        <mxCell id="Vr_59jr4dUAh8Cc-bapq-46" value="&lt;span style=&quot;font-size: 10px;&quot;&gt;3V3&lt;/span&gt;" style="text;html=1;strokeColor=none;fillColor=none;align=center;verticalAlign=middle;whiteSpace=wrap;rounded=0;" parent="1" vertex="1">
          <mxGeometry x="264" y="145" width="30" height="25" as="geometry" />
        </mxCell>
        <mxCell id="Vr_59jr4dUAh8Cc-bapq-47" value="&lt;span style=&quot;font-size: 10px;&quot;&gt;18&lt;/span&gt;" style="text;html=1;strokeColor=none;fillColor=none;align=center;verticalAlign=middle;whiteSpace=wrap;rounded=0;" parent="1" vertex="1">
          <mxGeometry x="435" y="264" width="30" height="30" as="geometry" />
        </mxCell>
        <mxCell id="Vr_59jr4dUAh8Cc-bapq-48" value="" style="endArrow=none;html=1;rounded=0;entryX=0.5;entryY=1;entryDx=0;entryDy=0;" parent="1" target="Vr_59jr4dUAh8Cc-bapq-45" edge="1">
          <mxGeometry width="50" height="50" relative="1" as="geometry">
            <mxPoint x="360" y="325" as="sourcePoint" />
            <mxPoint x="230" y="255" as="targetPoint" />
          </mxGeometry>
        </mxCell>
        <mxCell id="Vr_59jr4dUAh8Cc-bapq-61" value="" style="endArrow=none;html=1;rounded=0;" parent="1" edge="1">
          <mxGeometry width="50" height="50" relative="1" as="geometry">
            <mxPoint x="346" y="460" as="sourcePoint" />
            <mxPoint x="376" y="460" as="targetPoint" />
          </mxGeometry>
        </mxCell>
        <mxCell id="Vr_59jr4dUAh8Cc-bapq-62" value="" style="endArrow=none;html=1;rounded=0;" parent="1" edge="1">
          <mxGeometry width="50" height="50" relative="1" as="geometry">
            <mxPoint x="351" y="464" as="sourcePoint" />
            <mxPoint x="371" y="464" as="targetPoint" />
          </mxGeometry>
        </mxCell>
        <mxCell id="Vr_59jr4dUAh8Cc-bapq-63" value="" style="endArrow=none;html=1;rounded=0;" parent="1" edge="1">
          <mxGeometry width="50" height="50" relative="1" as="geometry">
            <mxPoint x="359" y="472" as="sourcePoint" />
            <mxPoint x="364" y="472" as="targetPoint" />
          </mxGeometry>
        </mxCell>
        <mxCell id="Vr_59jr4dUAh8Cc-bapq-64" value="" style="endArrow=none;html=1;rounded=0;" parent="1" edge="1">
          <mxGeometry width="50" height="50" relative="1" as="geometry">
            <mxPoint x="356" y="468" as="sourcePoint" />
            <mxPoint x="368" y="468" as="targetPoint" />
          </mxGeometry>
        </mxCell>
        <mxCell id="Vr_59jr4dUAh8Cc-bapq-65" value="" style="endArrow=none;html=1;rounded=0;entryX=0.5;entryY=1;entryDx=0;entryDy=0;" parent="1" edge="1">
          <mxGeometry width="50" height="50" relative="1" as="geometry">
            <mxPoint x="361" y="460" as="sourcePoint" />
            <mxPoint x="361" y="406" as="targetPoint" />
          </mxGeometry>
        </mxCell>
        <mxCell id="Vr_59jr4dUAh8Cc-bapq-92" value="" style="endArrow=none;html=1;rounded=0;" parent="1" edge="1">
          <mxGeometry width="50" height="50" relative="1" as="geometry">
            <mxPoint x="204" y="40" as="sourcePoint" />
            <mxPoint x="216" y="40" as="targetPoint" />
          </mxGeometry>
        </mxCell>
        <mxCell id="Vr_59jr4dUAh8Cc-bapq-93" value="&lt;span style=&quot;font-size: 10px;&quot;&gt;3V3&lt;/span&gt;" style="text;html=1;strokeColor=none;fillColor=none;align=center;verticalAlign=middle;whiteSpace=wrap;rounded=0;" parent="1" vertex="1">
          <mxGeometry x="195" y="20" width="30" height="20" as="geometry" />
        </mxCell>
        <mxCell id="fKp8TJcEMwfx0ITSWJcA-47" style="edgeStyle=orthogonalEdgeStyle;rounded=0;orthogonalLoop=1;jettySize=auto;html=1;exitX=0.5;exitY=1;exitDx=0;exitDy=0;entryX=0;entryY=0.57;entryDx=0;entryDy=0;entryPerimeter=0;endArrow=none;endFill=0;" edge="1" parent="1" source="Vr_59jr4dUAh8Cc-bapq-94" target="fKp8TJcEMwfx0ITSWJcA-45">
          <mxGeometry relative="1" as="geometry" />
        </mxCell>
        <mxCell id="Vr_59jr4dUAh8Cc-bapq-94" value="&lt;font style=&quot;font-size: 10px;&quot;&gt;2&lt;/font&gt;" style="text;html=1;strokeColor=none;fillColor=none;align=center;verticalAlign=middle;whiteSpace=wrap;rounded=0;" parent="1" vertex="1">
          <mxGeometry x="515.5" y="265" width="20" height="30" as="geometry" />
        </mxCell>
        <mxCell id="fKp8TJcEMwfx0ITSWJcA-46" style="edgeStyle=orthogonalEdgeStyle;rounded=0;orthogonalLoop=1;jettySize=auto;html=1;exitX=0.5;exitY=1;exitDx=0;exitDy=0;entryX=0;entryY=0.57;entryDx=0;entryDy=0;entryPerimeter=0;endArrow=none;endFill=0;" edge="1" parent="1" target="fKp8TJcEMwfx0ITSWJcA-44">
          <mxGeometry relative="1" as="geometry">
            <mxPoint x="485.5" y="294" as="sourcePoint" />
          </mxGeometry>
        </mxCell>
        <mxCell id="Vr_59jr4dUAh8Cc-bapq-95" value="&lt;span style=&quot;font-size: 10px;&quot;&gt;4&lt;/span&gt;" style="text;html=1;strokeColor=none;fillColor=none;align=center;verticalAlign=middle;whiteSpace=wrap;rounded=0;" parent="1" vertex="1">
          <mxGeometry x="477.5" y="264" width="17" height="30" as="geometry" />
        </mxCell>
        <mxCell id="fKp8TJcEMwfx0ITSWJcA-22" style="edgeStyle=orthogonalEdgeStyle;rounded=0;orthogonalLoop=1;jettySize=auto;html=1;entryX=1.007;entryY=0.082;entryDx=0;entryDy=0;entryPerimeter=0;endArrow=none;endFill=0;" edge="1" parent="1" target="Vr_59jr4dUAh8Cc-bapq-1">
          <mxGeometry relative="1" as="geometry">
            <mxPoint x="450" y="310" as="sourcePoint" />
            <Array as="points">
              <mxPoint x="194" y="310" />
              <mxPoint x="194" y="157" />
            </Array>
          </mxGeometry>
        </mxCell>
        <mxCell id="Vr_59jr4dUAh8Cc-bapq-96" value="&lt;font style=&quot;font-size: 10px;&quot;&gt;16&lt;/font&gt;" style="text;html=1;strokeColor=none;fillColor=none;align=center;verticalAlign=middle;whiteSpace=wrap;rounded=0;" parent="1" vertex="1">
          <mxGeometry x="225" y="145" width="20" height="30" as="geometry" />
        </mxCell>
        <mxCell id="fKp8TJcEMwfx0ITSWJcA-32" style="edgeStyle=orthogonalEdgeStyle;rounded=0;orthogonalLoop=1;jettySize=auto;html=1;exitX=0.5;exitY=1;exitDx=0;exitDy=0;endArrow=none;endFill=0;" edge="1" parent="1" source="Vr_59jr4dUAh8Cc-bapq-98">
          <mxGeometry relative="1" as="geometry">
            <mxPoint x="285" y="440" as="targetPoint" />
          </mxGeometry>
        </mxCell>
        <mxCell id="Vr_59jr4dUAh8Cc-bapq-98" value="&lt;font style=&quot;font-size: 10px;&quot;&gt;GND&lt;/font&gt;" style="text;html=1;strokeColor=none;fillColor=none;align=center;verticalAlign=middle;whiteSpace=wrap;rounded=0;" parent="1" vertex="1">
          <mxGeometry x="270" y="264" width="30" height="30" as="geometry" />
        </mxCell>
        <mxCell id="fKp8TJcEMwfx0ITSWJcA-25" style="edgeStyle=orthogonalEdgeStyle;rounded=0;orthogonalLoop=1;jettySize=auto;html=1;exitX=0.5;exitY=0;exitDx=0;exitDy=0;endArrow=none;endFill=0;" edge="1" parent="1" source="Vr_59jr4dUAh8Cc-bapq-99">
          <mxGeometry relative="1" as="geometry">
            <mxPoint x="419" y="60" as="targetPoint" />
          </mxGeometry>
        </mxCell>
        <mxCell id="Vr_59jr4dUAh8Cc-bapq-99" value="&lt;span style=&quot;font-size: 10px;&quot;&gt;19&lt;/span&gt;" style="text;html=1;strokeColor=none;fillColor=none;align=center;verticalAlign=middle;whiteSpace=wrap;rounded=0;" parent="1" vertex="1">
          <mxGeometry x="409" y="145" width="20" height="30" as="geometry" />
        </mxCell>
        <mxCell id="fKp8TJcEMwfx0ITSWJcA-24" style="edgeStyle=orthogonalEdgeStyle;rounded=0;orthogonalLoop=1;jettySize=auto;html=1;exitX=0.5;exitY=0;exitDx=0;exitDy=0;endArrow=none;endFill=0;" edge="1" parent="1" source="Vr_59jr4dUAh8Cc-bapq-102">
          <mxGeometry relative="1" as="geometry">
            <mxPoint x="399" y="90" as="targetPoint" />
          </mxGeometry>
        </mxCell>
        <mxCell id="Vr_59jr4dUAh8Cc-bapq-102" value="&lt;span style=&quot;font-size: 10px;&quot;&gt;23&lt;/span&gt;" style="text;html=1;strokeColor=none;fillColor=none;align=center;verticalAlign=middle;whiteSpace=wrap;rounded=0;" parent="1" vertex="1">
          <mxGeometry x="389" y="145" width="20" height="30" as="geometry" />
        </mxCell>
        <mxCell id="fKp8TJcEMwfx0ITSWJcA-6" value="&lt;font style=&quot;font-size: 10px;&quot;&gt;SCK&lt;/font&gt;" style="text;html=1;strokeColor=none;fillColor=none;align=center;verticalAlign=middle;whiteSpace=wrap;rounded=0;" vertex="1" parent="1">
          <mxGeometry x="150" y="145" width="25.5" height="30" as="geometry" />
        </mxCell>
        <mxCell id="fKp8TJcEMwfx0ITSWJcA-36" style="edgeStyle=orthogonalEdgeStyle;rounded=0;orthogonalLoop=1;jettySize=auto;html=1;exitX=0.5;exitY=0;exitDx=0;exitDy=0;entryX=0.5;entryY=0;entryDx=0;entryDy=0;endArrow=none;endFill=0;" edge="1" parent="1" source="fKp8TJcEMwfx0ITSWJcA-7" target="Vr_59jr4dUAh8Cc-bapq-96">
          <mxGeometry relative="1" as="geometry" />
        </mxCell>
        <mxCell id="fKp8TJcEMwfx0ITSWJcA-7" value="&lt;span style=&quot;font-size: 10px;&quot;&gt;CS&lt;/span&gt;" style="text;html=1;strokeColor=none;fillColor=none;align=center;verticalAlign=middle;whiteSpace=wrap;rounded=0;" vertex="1" parent="1">
          <mxGeometry x="127.5" y="145" width="22.5" height="30" as="geometry" />
        </mxCell>
        <mxCell id="fKp8TJcEMwfx0ITSWJcA-26" style="edgeStyle=orthogonalEdgeStyle;rounded=0;orthogonalLoop=1;jettySize=auto;html=1;exitX=0.5;exitY=0;exitDx=0;exitDy=0;endArrow=none;endFill=0;" edge="1" parent="1" source="fKp8TJcEMwfx0ITSWJcA-8">
          <mxGeometry relative="1" as="geometry">
            <mxPoint x="400" y="90" as="targetPoint" />
            <Array as="points">
              <mxPoint x="116" y="90" />
              <mxPoint x="400" y="90" />
            </Array>
          </mxGeometry>
        </mxCell>
        <mxCell id="fKp8TJcEMwfx0ITSWJcA-8" value="&lt;span style=&quot;font-size: 10px;&quot;&gt;MOSI&lt;/span&gt;" style="text;html=1;strokeColor=none;fillColor=none;align=center;verticalAlign=middle;whiteSpace=wrap;rounded=0;" vertex="1" parent="1">
          <mxGeometry x="100.5" y="145" width="30" height="30" as="geometry" />
        </mxCell>
        <mxCell id="fKp8TJcEMwfx0ITSWJcA-27" style="edgeStyle=orthogonalEdgeStyle;rounded=0;orthogonalLoop=1;jettySize=auto;html=1;exitX=0.5;exitY=0;exitDx=0;exitDy=0;endArrow=none;endFill=0;" edge="1" parent="1" source="fKp8TJcEMwfx0ITSWJcA-9">
          <mxGeometry relative="1" as="geometry">
            <mxPoint x="420" y="60" as="targetPoint" />
            <Array as="points">
              <mxPoint x="86" y="60" />
            </Array>
          </mxGeometry>
        </mxCell>
        <mxCell id="fKp8TJcEMwfx0ITSWJcA-9" value="&lt;span style=&quot;font-size: 10px;&quot;&gt;MISO&lt;/span&gt;" style="text;html=1;strokeColor=none;fillColor=none;align=center;verticalAlign=middle;whiteSpace=wrap;rounded=0;" vertex="1" parent="1">
          <mxGeometry x="70.5" y="145" width="30" height="30" as="geometry" />
        </mxCell>
        <mxCell id="fKp8TJcEMwfx0ITSWJcA-10" value="&lt;font style=&quot;font-size: 10px;&quot;&gt;6&lt;/font&gt;" style="text;html=1;strokeColor=none;fillColor=none;align=center;verticalAlign=middle;whiteSpace=wrap;rounded=0;" vertex="1" parent="1">
          <mxGeometry x="178.5" y="128" width="20" height="30" as="geometry" />
        </mxCell>
        <mxCell id="fKp8TJcEMwfx0ITSWJcA-11" value="&lt;span style=&quot;font-size: 10px;&quot;&gt;1&lt;/span&gt;" style="text;html=1;strokeColor=none;fillColor=none;align=center;verticalAlign=middle;whiteSpace=wrap;rounded=0;" vertex="1" parent="1">
          <mxGeometry x="117.5" y="118" width="18" height="26" as="geometry" />
        </mxCell>
        <mxCell id="fKp8TJcEMwfx0ITSWJcA-12" value="&lt;span style=&quot;font-size: 10px;&quot;&gt;5&lt;/span&gt;" style="text;html=1;strokeColor=none;fillColor=none;align=center;verticalAlign=middle;whiteSpace=wrap;rounded=0;" vertex="1" parent="1">
          <mxGeometry x="85.5" y="116" width="30" height="30" as="geometry" />
        </mxCell>
        <mxCell id="fKp8TJcEMwfx0ITSWJcA-13" value="&lt;span style=&quot;font-size: 10px;&quot;&gt;2&lt;/span&gt;" style="text;html=1;strokeColor=none;fillColor=none;align=center;verticalAlign=middle;whiteSpace=wrap;rounded=0;" vertex="1" parent="1">
          <mxGeometry x="55.5" y="116" width="30" height="30" as="geometry" />
        </mxCell>
        <mxCell id="fKp8TJcEMwfx0ITSWJcA-20" style="edgeStyle=orthogonalEdgeStyle;rounded=0;orthogonalLoop=1;jettySize=auto;html=1;exitX=0.5;exitY=1;exitDx=0;exitDy=0;endArrow=none;endFill=0;" edge="1" parent="1">
          <mxGeometry relative="1" as="geometry">
            <mxPoint x="140" y="342" as="targetPoint" />
            <mxPoint x="106" y="295" as="sourcePoint" />
            <Array as="points">
              <mxPoint x="106" y="342" />
            </Array>
          </mxGeometry>
        </mxCell>
        <mxCell id="fKp8TJcEMwfx0ITSWJcA-29" style="edgeStyle=orthogonalEdgeStyle;rounded=0;orthogonalLoop=1;jettySize=auto;html=1;exitX=1;exitY=0.5;exitDx=0;exitDy=0;endArrow=none;endFill=0;entryX=0.894;entryY=0.879;entryDx=0;entryDy=0;entryPerimeter=0;" edge="1" parent="1" source="fKp8TJcEMwfx0ITSWJcA-28" target="Vr_59jr4dUAh8Cc-bapq-14">
          <mxGeometry relative="1" as="geometry">
            <mxPoint x="579" y="170" as="targetPoint" />
          </mxGeometry>
        </mxCell>
        <mxCell id="fKp8TJcEMwfx0ITSWJcA-28" value="&lt;span style=&quot;font-size: 10px;&quot;&gt;5&lt;/span&gt;" style="text;html=1;strokeColor=none;fillColor=none;align=center;verticalAlign=middle;whiteSpace=wrap;rounded=0;" vertex="1" parent="1">
          <mxGeometry x="530" y="154" width="20" height="30" as="geometry" />
        </mxCell>
        <mxCell id="fKp8TJcEMwfx0ITSWJcA-33" value="&lt;span style=&quot;font-size: 10px;&quot;&gt;3&lt;/span&gt;" style="text;html=1;strokeColor=none;fillColor=none;align=center;verticalAlign=middle;whiteSpace=wrap;rounded=0;" vertex="1" parent="1">
          <mxGeometry x="730" y="273" width="20" height="30" as="geometry" />
        </mxCell>
        <mxCell id="fKp8TJcEMwfx0ITSWJcA-42" value="" style="pointerEvents=1;verticalLabelPosition=bottom;shadow=0;dashed=0;align=center;html=1;verticalAlign=top;shape=mxgraph.electrical.resistors.resistor_2;rotation=90;" vertex="1" parent="1">
          <mxGeometry x="460.25" y="388.25" width="51.5" height="11" as="geometry" />
        </mxCell>
        <mxCell id="fKp8TJcEMwfx0ITSWJcA-43" value="" style="pointerEvents=1;verticalLabelPosition=bottom;shadow=0;dashed=0;align=center;html=1;verticalAlign=top;shape=mxgraph.electrical.resistors.resistor_2;rotation=90;" vertex="1" parent="1">
          <mxGeometry x="499.87" y="388.88" width="51.25" height="11" as="geometry" />
        </mxCell>
        <mxCell id="fKp8TJcEMwfx0ITSWJcA-44" value="" style="verticalLabelPosition=bottom;shadow=0;dashed=0;align=center;html=1;verticalAlign=top;shape=mxgraph.electrical.opto_electronics.led_2;pointerEvents=1;rotation=90;" vertex="1" parent="1">
          <mxGeometry x="466" y="334" width="44" height="26" as="geometry" />
        </mxCell>
        <mxCell id="fKp8TJcEMwfx0ITSWJcA-45" value="" style="verticalLabelPosition=bottom;shadow=0;dashed=0;align=center;html=1;verticalAlign=top;shape=mxgraph.electrical.opto_electronics.led_2;pointerEvents=1;rotation=90;" vertex="1" parent="1">
          <mxGeometry x="505" y="334" width="44" height="26" as="geometry" />
        </mxCell>
        <mxCell id="fKp8TJcEMwfx0ITSWJcA-49" value="&lt;span style=&quot;font-size: 10px;&quot;&gt;180&lt;/span&gt;" style="text;html=1;strokeColor=none;fillColor=none;align=center;verticalAlign=middle;whiteSpace=wrap;rounded=0;rotation=90;" vertex="1" parent="1">
          <mxGeometry x="528.5" y="383" width="24.5" height="16" as="geometry" />
        </mxCell>
        <mxCell id="fKp8TJcEMwfx0ITSWJcA-50" value="&lt;span style=&quot;font-size: 10px;&quot;&gt;180&lt;/span&gt;" style="text;html=1;strokeColor=none;fillColor=none;align=center;verticalAlign=middle;whiteSpace=wrap;rounded=0;rotation=90;" vertex="1" parent="1">
          <mxGeometry x="487.25" y="383" width="24.5" height="16" as="geometry" />
        </mxCell>
      </root>
    </mxGraphModel>
  </diagram>
</mxfile>
